<svg xmlns="http://www.w3.org/2000/svg" viewBox="0 0 1200 800">
  <defs>
    <linearGradient id="bg" x1="0" y1="0" x2="1" y2="1">
      <stop offset="0%" stop-color="#dff4f7"/>
      <stop offset="100%" stop-color="#b9e4c9"/>
    </linearGradient>
  </defs>
  <rect width="1200" height="800" fill="url(#bg)"/>
  <rect x="280" y="170" width="640" height="460" rx="34" fill="#20343a"/>
  <rect x="350" y="250" width="500" height="90" rx="18" fill="#2f4d55"/>
  <rect x="350" y="380" width="500" height="90" rx="18" fill="#2f4d55"/>
  <rect x="350" y="510" width="500" height="90" rx="18" fill="#2f4d55"/>
  <circle cx="410" cy="295" r="12" fill="#7ec4cf"/>
  <circle cx="410" cy="425" r="12" fill="#7ec4cf"/>
  <circle cx="410" cy="555" r="12" fill="#7ec4cf"/>
  <path d="M950 300c60 0 110 50 110 110s-50 110-110 110" fill="none" stroke="#2f3e46" stroke-width="20" stroke-linecap="round"/>
  <path d="M980 340c40 0 70 30 70 70s-30 70-70 70" fill="none" stroke="#7ec4cf" stroke-width="16" stroke-linecap="round"/>
  <text x="70" y="110" font-family="Segoe UI, Arial, sans-serif" font-size="72" font-weight="700" fill="#20343a">Homeserver</text>
</svg>
